<mxfile host="app.diagrams.net" modified="2024-05-04T01:47:34.533Z" agent="Mozilla/5.0 (X11; Linux x86_64) AppleWebKit/537.36 (KHTML, like Gecko) Chrome/124.0.0.0 Safari/537.36" version="24.3.1" etag="-6b01_ESmudX7u5JOOMX" type="github">
  <diagram name="PÃ¡gina-1" id="S5yT-SRMCgnwhj5iHbOD">
    <mxGraphModel>
      <root>
        <mxCell id="0" />
        <mxCell id="1" parent="0" />
      </root>
    </mxGraphModel>
  </diagram>
</mxfile>
